M48
; DRILL file {KiCad 7.0.2} date Tue Jun 13 08:28:32 2023
; FORMAT={3:3/ absolute / metric / suppress leading zeros}
; #@! TF.CreationDate,2023-06-13T08:28:32-06:00
; #@! TF.GenerationSoftware,Kicad,Pcbnew,7.0.2
; #@! TF.FileFunction,MixedPlating,1,2
FMAT,2
METRIC,TZ
; #@! TA.AperFunction,Plated,PTH,ComponentDrill
T1C0.800
; #@! TA.AperFunction,Plated,PTH,ComponentDrill
T2C0.900
; #@! TA.AperFunction,Plated,PTH,ComponentDrill
T3C1.000
; #@! TA.AperFunction,Plated,PTH,ComponentDrill
T4C1.100
; #@! TA.AperFunction,Plated,PTH,ComponentDrill
T5C1.200
; #@! TA.AperFunction,Plated,PTH,ComponentDrill
T6C1.300
; #@! TA.AperFunction,Plated,PTH,ComponentDrill
T7C3.000
%
G90
G05
T1
X105000Y-92000
X105000Y-97500
X115160Y-92000
X115160Y-97500
X120000Y-89000
X120000Y-91500
X120000Y-98500
X120000Y-101000
X125000Y-89000
X125000Y-91000
X125000Y-99000
X125000Y-101000
T2
X118645Y-85500
X118645Y-104500
X121185Y-85500
X121185Y-104500
T3
X94000Y-92500
X94000Y-97500
X99000Y-92500
X99000Y-97500
T4
X127185Y-77500
X127185Y-80040
X127185Y-82580
X127185Y-107420
X127185Y-109960
X127185Y-112500
T5
X91500Y-79500
X91500Y-110500
X96500Y-79500
X96500Y-110500
X108185Y-76815
X108185Y-81815
X108685Y-107815
X108685Y-112815
T6
X84000Y-90000
X84000Y-95000
X84000Y-100000
X134000Y-90000
X134000Y-95000
X134000Y-100000
T7
X82500Y-76000
X82500Y-114000
X135500Y-76000
X135500Y-114000
T0
M30
