G04 #@! TF.GenerationSoftware,KiCad,Pcbnew,7.0.2*
G04 #@! TF.CreationDate,2023-06-13T08:28:25-06:00*
G04 #@! TF.ProjectId,Fuente_TE2007B_Simetrica,4675656e-7465-45f5-9445-32303037425f,rev?*
G04 #@! TF.SameCoordinates,Original*
G04 #@! TF.FileFunction,Copper,L1,Top*
G04 #@! TF.FilePolarity,Positive*
%FSLAX46Y46*%
G04 Gerber Fmt 4.6, Leading zero omitted, Abs format (unit mm)*
G04 Created by KiCad (PCBNEW 7.0.2) date 2023-06-13 08:28:25*
%MOMM*%
%LPD*%
G01*
G04 APERTURE LIST*
G04 #@! TA.AperFunction,ComponentPad*
%ADD10C,1.800000*%
G04 #@! TD*
G04 #@! TA.AperFunction,ComponentPad*
%ADD11R,1.800000X1.800000*%
G04 #@! TD*
G04 #@! TA.AperFunction,ComponentPad*
%ADD12R,2.400000X2.400000*%
G04 #@! TD*
G04 #@! TA.AperFunction,ComponentPad*
%ADD13C,2.400000*%
G04 #@! TD*
G04 #@! TA.AperFunction,ComponentPad*
%ADD14R,2.600000X2.600000*%
G04 #@! TD*
G04 #@! TA.AperFunction,ComponentPad*
%ADD15C,2.600000*%
G04 #@! TD*
G04 #@! TA.AperFunction,ComponentPad*
%ADD16C,1.600000*%
G04 #@! TD*
G04 #@! TA.AperFunction,ComponentPad*
%ADD17O,1.600000X1.600000*%
G04 #@! TD*
G04 #@! TA.AperFunction,ComponentPad*
%ADD18R,1.600000X1.600000*%
G04 #@! TD*
G04 #@! TA.AperFunction,ComponentPad*
%ADD19C,6.000000*%
G04 #@! TD*
G04 #@! TA.AperFunction,ComponentPad*
%ADD20R,2.000000X1.905000*%
G04 #@! TD*
G04 #@! TA.AperFunction,ComponentPad*
%ADD21O,2.000000X1.905000*%
G04 #@! TD*
G04 #@! TA.AperFunction,ComponentPad*
%ADD22R,2.000000X2.000000*%
G04 #@! TD*
G04 #@! TA.AperFunction,ComponentPad*
%ADD23O,2.000000X2.000000*%
G04 #@! TD*
G04 APERTURE END LIST*
D10*
G04 #@! TO.P,D3,2,A*
G04 #@! TO.N,Net-(D3-A)*
X121184784Y-104500000D03*
D11*
G04 #@! TO.P,D3,1,K*
G04 #@! TO.N,GND*
X118644784Y-104500000D03*
G04 #@! TD*
G04 #@! TO.P,D2,1,K*
G04 #@! TO.N,GND*
X121184784Y-85500000D03*
D10*
G04 #@! TO.P,D2,2,A*
G04 #@! TO.N,Net-(D2-A)*
X118644784Y-85500000D03*
G04 #@! TD*
D12*
G04 #@! TO.P,C1,1*
G04 #@! TO.N,PFILT*
X108184784Y-81815216D03*
D13*
G04 #@! TO.P,C1,2*
G04 #@! TO.N,GND*
X108184784Y-76815216D03*
G04 #@! TD*
D14*
G04 #@! TO.P,J2,1,Pin_1*
G04 #@! TO.N,X1*
X84000000Y-90000000D03*
D15*
G04 #@! TO.P,J2,2,Pin_2*
G04 #@! TO.N,GND*
X84000000Y-95000000D03*
G04 #@! TO.P,J2,3,Pin_3*
G04 #@! TO.N,X3*
X84000000Y-100000000D03*
G04 #@! TD*
D16*
G04 #@! TO.P,R2,1*
G04 #@! TO.N,NFILT*
X105000000Y-97500000D03*
D17*
G04 #@! TO.P,R2,2*
G04 #@! TO.N,Net-(D3-A)*
X115160000Y-97500000D03*
G04 #@! TD*
D18*
G04 #@! TO.P,C7,1*
G04 #@! TO.N,GND*
X125000000Y-99000000D03*
D16*
G04 #@! TO.P,C7,2*
G04 #@! TO.N,VOUT-*
X125000000Y-101000000D03*
G04 #@! TD*
D18*
G04 #@! TO.P,C5,1*
G04 #@! TO.N,VOUT+*
X125000000Y-89000000D03*
D16*
G04 #@! TO.P,C5,2*
G04 #@! TO.N,GND*
X125000000Y-91000000D03*
G04 #@! TD*
D19*
G04 #@! TO.P,H3,1,1*
G04 #@! TO.N,GND*
X135500000Y-76000000D03*
G04 #@! TD*
D12*
G04 #@! TO.P,C4,1*
G04 #@! TO.N,GND*
X96500000Y-110500000D03*
D13*
G04 #@! TO.P,C4,2*
G04 #@! TO.N,NFILT*
X91500000Y-110500000D03*
G04 #@! TD*
D19*
G04 #@! TO.P,H1,1,1*
G04 #@! TO.N,GND*
X82500000Y-76000000D03*
G04 #@! TD*
D12*
G04 #@! TO.P,C2,1*
G04 #@! TO.N,PFILT*
X96500000Y-79500000D03*
D13*
G04 #@! TO.P,C2,2*
G04 #@! TO.N,GND*
X91500000Y-79500000D03*
G04 #@! TD*
D20*
G04 #@! TO.P,U1,1,VI*
G04 #@! TO.N,PFILT*
X127184784Y-77500000D03*
D21*
G04 #@! TO.P,U1,2,GND*
G04 #@! TO.N,GND*
X127184784Y-80040000D03*
G04 #@! TO.P,U1,3,VO*
G04 #@! TO.N,VOUT+*
X127184784Y-82580000D03*
G04 #@! TD*
D16*
G04 #@! TO.P,C8,1*
G04 #@! TO.N,GND*
X120000000Y-98500000D03*
G04 #@! TO.P,C8,2*
G04 #@! TO.N,VOUT-*
X120000000Y-101000000D03*
G04 #@! TD*
D12*
G04 #@! TO.P,C3,1*
G04 #@! TO.N,GND*
X108684784Y-112815216D03*
D13*
G04 #@! TO.P,C3,2*
G04 #@! TO.N,NFILT*
X108684784Y-107815216D03*
G04 #@! TD*
D19*
G04 #@! TO.P,H2,1,1*
G04 #@! TO.N,GND*
X82500000Y-114000000D03*
G04 #@! TD*
D14*
G04 #@! TO.P,J1,1,Pin_1*
G04 #@! TO.N,VOUT-*
X134000000Y-100000000D03*
D15*
G04 #@! TO.P,J1,2,Pin_2*
G04 #@! TO.N,GND*
X134000000Y-95000000D03*
G04 #@! TO.P,J1,3,Pin_3*
G04 #@! TO.N,VOUT+*
X134000000Y-90000000D03*
G04 #@! TD*
D22*
G04 #@! TO.P,D1,1,+*
G04 #@! TO.N,PFILT*
X99000000Y-92500000D03*
D23*
G04 #@! TO.P,D1,2*
G04 #@! TO.N,X1*
X94000000Y-92500000D03*
G04 #@! TO.P,D1,3,-*
G04 #@! TO.N,NFILT*
X94000000Y-97500000D03*
G04 #@! TO.P,D1,4*
G04 #@! TO.N,X3*
X99000000Y-97500000D03*
G04 #@! TD*
D16*
G04 #@! TO.P,R1,1*
G04 #@! TO.N,PFILT*
X105000000Y-92000000D03*
D17*
G04 #@! TO.P,R1,2*
G04 #@! TO.N,Net-(D2-A)*
X115160000Y-92000000D03*
G04 #@! TD*
D16*
G04 #@! TO.P,C6,1*
G04 #@! TO.N,VOUT+*
X120000000Y-89000000D03*
G04 #@! TO.P,C6,2*
G04 #@! TO.N,GND*
X120000000Y-91500000D03*
G04 #@! TD*
D20*
G04 #@! TO.P,U2,1,GND*
G04 #@! TO.N,GND*
X127184784Y-112500000D03*
D21*
G04 #@! TO.P,U2,2,VI*
G04 #@! TO.N,NFILT*
X127184784Y-109960000D03*
G04 #@! TO.P,U2,3,VO*
G04 #@! TO.N,VOUT-*
X127184784Y-107420000D03*
G04 #@! TD*
D19*
G04 #@! TO.P,H4,1,1*
G04 #@! TO.N,GND*
X135500000Y-114000000D03*
G04 #@! TD*
M02*
