G04 #@! TF.GenerationSoftware,KiCad,Pcbnew,7.0.2*
G04 #@! TF.CreationDate,2023-06-13T08:28:25-06:00*
G04 #@! TF.ProjectId,Fuente_TE2007B_Simetrica,4675656e-7465-45f5-9445-32303037425f,rev?*
G04 #@! TF.SameCoordinates,Original*
G04 #@! TF.FileFunction,Soldermask,Bot*
G04 #@! TF.FilePolarity,Negative*
%FSLAX46Y46*%
G04 Gerber Fmt 4.6, Leading zero omitted, Abs format (unit mm)*
G04 Created by KiCad (PCBNEW 7.0.2) date 2023-06-13 08:28:25*
%MOMM*%
%LPD*%
G01*
G04 APERTURE LIST*
%ADD10C,1.800000*%
%ADD11R,1.800000X1.800000*%
%ADD12R,2.400000X2.400000*%
%ADD13C,2.400000*%
%ADD14R,2.600000X2.600000*%
%ADD15C,2.600000*%
%ADD16C,1.600000*%
%ADD17O,1.600000X1.600000*%
%ADD18R,1.600000X1.600000*%
%ADD19C,6.000000*%
%ADD20R,2.000000X1.905000*%
%ADD21O,2.000000X1.905000*%
%ADD22R,2.000000X2.000000*%
%ADD23O,2.000000X2.000000*%
G04 APERTURE END LIST*
D10*
G04 #@! TO.C,D3*
X121184784Y-104500000D03*
D11*
X118644784Y-104500000D03*
G04 #@! TD*
G04 #@! TO.C,D2*
X121184784Y-85500000D03*
D10*
X118644784Y-85500000D03*
G04 #@! TD*
D12*
G04 #@! TO.C,C1*
X108184784Y-81815216D03*
D13*
X108184784Y-76815216D03*
G04 #@! TD*
D14*
G04 #@! TO.C,J2*
X84000000Y-90000000D03*
D15*
X84000000Y-95000000D03*
X84000000Y-100000000D03*
G04 #@! TD*
D16*
G04 #@! TO.C,R2*
X105000000Y-97500000D03*
D17*
X115160000Y-97500000D03*
G04 #@! TD*
D18*
G04 #@! TO.C,C7*
X125000000Y-99000000D03*
D16*
X125000000Y-101000000D03*
G04 #@! TD*
D18*
G04 #@! TO.C,C5*
X125000000Y-89000000D03*
D16*
X125000000Y-91000000D03*
G04 #@! TD*
D19*
G04 #@! TO.C,H3*
X135500000Y-76000000D03*
G04 #@! TD*
D12*
G04 #@! TO.C,C4*
X96500000Y-110500000D03*
D13*
X91500000Y-110500000D03*
G04 #@! TD*
D19*
G04 #@! TO.C,H1*
X82500000Y-76000000D03*
G04 #@! TD*
D12*
G04 #@! TO.C,C2*
X96500000Y-79500000D03*
D13*
X91500000Y-79500000D03*
G04 #@! TD*
D20*
G04 #@! TO.C,U1*
X127184784Y-77500000D03*
D21*
X127184784Y-80040000D03*
X127184784Y-82580000D03*
G04 #@! TD*
D16*
G04 #@! TO.C,C8*
X120000000Y-98500000D03*
X120000000Y-101000000D03*
G04 #@! TD*
D12*
G04 #@! TO.C,C3*
X108684784Y-112815216D03*
D13*
X108684784Y-107815216D03*
G04 #@! TD*
D19*
G04 #@! TO.C,H2*
X82500000Y-114000000D03*
G04 #@! TD*
D14*
G04 #@! TO.C,J1*
X134000000Y-100000000D03*
D15*
X134000000Y-95000000D03*
X134000000Y-90000000D03*
G04 #@! TD*
D22*
G04 #@! TO.C,D1*
X99000000Y-92500000D03*
D23*
X94000000Y-92500000D03*
X94000000Y-97500000D03*
X99000000Y-97500000D03*
G04 #@! TD*
D16*
G04 #@! TO.C,R1*
X105000000Y-92000000D03*
D17*
X115160000Y-92000000D03*
G04 #@! TD*
D16*
G04 #@! TO.C,C6*
X120000000Y-89000000D03*
X120000000Y-91500000D03*
G04 #@! TD*
D20*
G04 #@! TO.C,U2*
X127184784Y-112500000D03*
D21*
X127184784Y-109960000D03*
X127184784Y-107420000D03*
G04 #@! TD*
D19*
G04 #@! TO.C,H4*
X135500000Y-114000000D03*
G04 #@! TD*
M02*
